<?xml version="1.0" standalone="no"?><!DOCTYPE svg PUBLIC "-//W3C//DTD SVG 1.1//EN" "http://www.w3.org/Graphics/SVG/1.1/DTD/svg11.dtd"><svg t="1728258687863" class="icon" viewBox="0 0 1242 1024" version="1.1" xmlns="http://www.w3.org/2000/svg" p-id="10727" xmlns:xlink="http://www.w3.org/1999/xlink" width="242.578125" height="200"><path d="M291.201904 242.224201m-39.495964 0a39.495965 39.495965 0 1 0 78.991929 0 39.495965 39.495965 0 1 0-78.991929 0Z" p-id="10728"></path><path d="M1095.899254 312.928924c-1.053864-2.395146-2.13168-4.790293-3.209496-7.305196-0.215563-0.598787-0.383223-1.197573-0.646689-1.79636l-25.819679-61.291797c-39.040887-57.938592-123.373993-157.145558-268.136644-209.67112-12.933791-4.790293-25.723873-8.742285-38.322343-12.287101q-22.394619-5.963915-45.004802-9.915906l1.173622-0.47903a815.307849 815.307849 0 0 0-108.739649-9.844052c-56.717068-1.317331-215.108102-3.11369-384.157537 85.794146a738.255988 738.255988 0 0 0-159.109578 113.050912 104.164919 104.164919 0 0 0-42.394092 159.253287 357.547461 357.547461 0 0 0 422.168511 111.398261l105.793619-44.525773a132.47555 132.47555 0 0 1 173.336748 70.561015 238.652391 238.652391 0 0 1-102.991297 301.045956 39.495965 39.495965 0 1 0 38.633712 68.884412 317.524564 317.524564 0 0 0 137.146085-400.612194 211.563285 211.563285 0 0 0-276.783123-112.571883l-7.185439 3.017884c13.125402-45.244316 8.83809-95.638197-12.718228-146.798525a39.500755 39.500755 0 1 0-72.812452 30.657875c32.645846 77.506939 7.927935 140.259776-67.830547 172.187077a38.058877 38.058877 0 0 0-6.323186 3.401108 278.507628 278.507628 0 0 1-267.801324-104.715802 24.406542 24.406542 0 0 1-4.263361-21.556318 25.220892 25.220892 0 0 1 14.658297-16.909734 689.514758 689.514758 0 0 1 172.88167-121.218362c157.50483-77.267424 300.279509-71.423267 360.038413-68.21377 46.849064 2.395146 99.590189 5.7244 163.39689 31.711739a423.677454 423.677454 0 0 1 232.329205 229.47898c91.326934 216.760753-10.706305 467.412828-227.538912 558.763714l-26.346611 11.113479a397.809872 397.809872 0 0 1-360.421636-26.346611 39.591771 39.591771 0 0 0-4.790293-7.832129c-69.291587-88.620418 68.980218-253.765765 70.393354-255.418416a39.400159 39.400159 0 0 0 6.490846-41.124665l-0.766446-1.820311a39.472013 39.472013 0 0 0-48.094541-22.394619c-80.117648 24.789766-145.145874 22.993406-185.599898 17.101346-42.465946-6.155526-67.614984-18.011501-69.459247-18.897706a39.160644 39.160644 0 0 0-44.837141 5.89206 39.615722 39.615722 0 0 0-9.580586 44.621579l52.525562 124.547615A476.897608 476.897608 0 0 0 799.883106 986.324346l26.34661-11.113479a505.639365 505.639365 0 0 0 269.669538-662.281943zM306.722453 798.856234a396.636251 396.636251 0 0 1-58.752942-97.554314l-20.502453-48.645424a464.65841 464.65841 0 0 0 129.840888 2.395146c-23.137115 40.501926-45.555685 91.662254-50.585493 143.804592z" p-id="10729"></path><path d="M292.734798 339.275535a95.805858 95.805858 0 1 1 24.813717-3.257399 96.739965 96.739965 0 0 1-24.813717 3.257399z m0.143709-158.079665a62.273807 62.273807 0 1 0 60.213981 46.298181 62.489371 62.489371 0 0 0-60.213981-46.298181zM1071.636421 310.533778l-47.088579-36.981061a250.268852 250.268852 0 0 1 151.349303-94.584333c-15.400792-17.532472-52.429756-44.621578-96.955527-54.824902-66.513217-15.233131-125.888897 14.370879-155.37315 33.53205l-32.502137-50.298075c37.412187-24.167028 113.314378-61.722924 201.192301-41.579742 58.633185 13.436772 119.589662 53.172251 141.792669 92.404749 11.137431 19.664152 9.772197 35.136798 6.658507 44.621579-8.095595 24.789766-31.615933 30.059088-50.513638 34.298497a209.958537 209.958537 0 0 0-49.292114 16.167238 199.755213 199.755213 0 0 0-69.267635 57.244z" p-id="10730"></path></svg>