<?xml version="1.0" standalone="no"?><!DOCTYPE svg PUBLIC "-//W3C//DTD SVG 1.1//EN" "http://www.w3.org/Graphics/SVG/1.1/DTD/svg11.dtd"><svg t="1728223437776" class="icon" viewBox="0 0 1231 1024" version="1.1" xmlns="http://www.w3.org/2000/svg" p-id="8378" width="240.4296875" height="200" xmlns:xlink="http://www.w3.org/1999/xlink"><path d="M1177.738445 663.954058a51.073389 51.073389 0 0 1-36.262107-14.811283l-123.086867-123.086868a51.073389 51.073389 0 0 0-36.262107-14.811282H462.710998A153.220167 153.220167 0 0 1 309.49083 357.513723V153.220167a153.220167 153.220167 0 0 1 153.220168-153.220167h612.880668a153.220167 153.220167 0 0 1 153.220168 153.220167v204.293556a51.073389 51.073389 0 0 1-102.146778 0V153.220167a51.073389 51.073389 0 0 0-51.07339-51.073389H462.710998a51.073389 51.073389 0 0 0-51.073389 51.073389v204.293556a51.073389 51.073389 0 0 0 51.073389 51.07339h519.416366a153.220167 153.220167 0 0 1 108.275585 44.944582l123.086868 123.086868A51.073389 51.073389 0 0 1 1177.738445 663.954058zM105.197274 715.027447v-204.293556a51.073389 51.073389 0 0 1 51.073389-51.073389 51.073389 51.073389 0 0 0 0-102.146779 153.220167 153.220167 0 0 0-153.220167 153.220168v204.293556a51.073389 51.073389 0 0 0 102.146778 0z m-14.811283 291.629052l123.086868-123.086868a51.073389 51.073389 0 0 1 36.262106-15.322017H769.151332a153.220167 153.220167 0 0 0 153.220167-153.220167v-51.073389a51.073389 51.073389 0 0 0-102.146778 0v51.073389a51.073389 51.073389 0 0 1-51.073389 51.073389H249.734965a153.220167 153.220167 0 0 0-108.275585 44.944582L17.861779 934.132286A51.073389 51.073389 0 1 0 89.875257 1006.145765z" fill="#3E2AD1" p-id="8379"></path></svg>