<?xml version="1.0" standalone="no"?>
<!DOCTYPE svg PUBLIC "-//W3C//DTD SVG 20010904//EN"
 "http://www.w3.org/TR/2001/REC-SVG-20010904/DTD/svg10.dtd">
<svg version="1.0" xmlns="http://www.w3.org/2000/svg"
 width="172.000000pt" height="145.000000pt" viewBox="0 0 172.000000 145.000000"
 preserveAspectRatio="xMidYMid meet">

<g transform="translate(0.000000,145.000000) scale(0.100000,-0.100000)"
fill="#000000" stroke="none">
<path d="M330 1349 c-66 -9 -114 -33 -149 -76 -69 -83 -66 -62 -66 -548 0
-410 1 -442 19 -475 35 -67 66 -99 120 -124 l55 -26 561 0 c608 0 592 -1 667
56 18 13 45 46 60 72 l28 47 0 440 c0 400 -2 444 -18 487 -21 54 -88 120 -139
137 -37 12 -1053 21 -1138 10z m1108 -113 c15 -8 38 -26 52 -41 l25 -27 3
-319 c1 -175 0 -319 -4 -319 -3 0 -47 37 -97 81 -105 95 -173 129 -268 137
-104 7 -154 -10 -327 -115 -86 -52 -177 -106 -202 -120 -25 -14 -50 -30 -57
-35 -6 -5 -82 -51 -170 -103 -135 -81 -159 -92 -165 -77 -4 9 -7 201 -7 427
-1 457 -1 456 68 502 l34 23 544 0 c448 0 549 -2 571 -14z m-213 -611 c19 -9
94 -68 165 -131 129 -115 130 -117 130 -159 0 -35 -6 -50 -33 -78 -18 -20 -50
-40 -72 -46 -49 -14 -1061 -16 -1069 -2 -9 14 619 395 699 423 56 20 120 18
180 -7z"/>
<path d="M455 964 c-20 -7 -38 -14 -39 -16 -50 -66 -48 -126 8 -170 26 -22 87
-23 125 -3 56 28 66 107 21 158 -35 41 -65 49 -115 31z"/>
</g>
</svg>
